# xmcd
#
# Track frame offsets:
#	150
#	18577
#	51180
#	79570
#	90190
#	103392
#	114792
#	128955
#	142655
#	154685
#	169837
#	179385
#
# Disc length: 2532 seconds
# Revision: 6
# Processed by: cddbd v1.5.2PL0 Copyright (c) Steve Scherf et al.
# Submitted via: dBpowerAMP V12.0
#
DISCID=8c09e20c
DTITLE=Buddy Guy - I Was Walking Through the Woods
DYEAR=1970
DGENRE=Blues
TTITLE0=Watch Yourself
TTITLE1=Stone Crazy
TTITLE2=I Found a True Love
TTITLE3=First Time I Met the Blues
TTITLE4=Let Me Love You Baby
TTITLE5=No Lie
TTITLE6=I Got a Strange Feeling
TTITLE7=My Time After Awhile
TTITLE8=Ten Years Ago
TTITLE9=Broken-Hearted Blues
TTITLE10=Slop Around
TTITLE11=I Got My Eyes on You
EXTD=
EXTT0=
EXTT1=
EXTT2=
EXTT3=
EXTT4=
EXTT5=
EXTT6=
EXTT7=
EXTT8=
EXTT9=
EXTT10=
EXTT11=
PLAYORDER=
